<svg id="Capa_1" data-name="Capa 1" xmlns="http://www.w3.org/2000/svg" viewBox="0 0 30.89 20.46"><defs><style>.cls-1{font-size:12.65px;}.cls-1,.cls-2,.cls-3{fill:#8dab7f;}.cls-1,.cls-2{font-family:Candara;}.cls-2{font-size:12.65px;}</style></defs><text class="cls-1" transform="translate(0 16.87) scale(1.04 1)">Ra</text><text class="cls-2" transform="translate(17.54 16.87) scale(1.1 1)">ns</text><path class="cls-3" d="M16.25.6a8.51,8.51,0,0,0-4.39,2.46,8.34,8.34,0,0,0-1.09,1.36A10.8,10.8,0,0,0,10,5.93a13,13,0,0,0,2.37,0h2.37l0-.38a9.27,9.27,0,0,1,1-3.42,12.32,12.32,0,0,1,.92-1.5c.07-.09.1-.16.07-.15Z" transform="translate(-2 -0.5)"/><path class="cls-3" d="M19.33.66a11.74,11.74,0,0,1,1,1.6,9.27,9.27,0,0,1,.91,3.21l.06.49h2.36a18.85,18.85,0,0,0,2.37,0,8.89,8.89,0,0,0-.61-1.25,8.59,8.59,0,0,0-3.55-3.34,8.18,8.18,0,0,0-2.5-.83l-.13,0Z" transform="translate(-2 -0.5)"/><path class="cls-3" d="M17.75.88a8.51,8.51,0,0,0-2,4.51c0,.22,0,.44,0,.49V6h4.57l0-.26a8.81,8.81,0,0,0-1.73-4.48A5,5,0,0,0,18,.61Z" transform="translate(-2 -0.5)"/><path class="cls-3" d="M9.77,7.46v.48l.27.31.26.32h1.46L12,8.26l.26-.3V7H9.77Z" transform="translate(-2 -0.5)"/><path class="cls-3" d="M13.24,7.45v.48l.28.32.27.32h1.46l.27-.32.26-.32V7H13.24Z" transform="translate(-2 -0.5)"/><path class="cls-3" d="M16.75,7.46V8l.26.31.26.31h1.46L19,8.26,19.25,8V7h-2.5Z" transform="translate(-2 -0.5)"/><path class="cls-3" d="M20.22,7.45v.48l.26.32.27.32h1.46l.27-.32.28-.32V7H20.22Z" transform="translate(-2 -0.5)"/><path class="cls-3" d="M23.72,7.46V8l.26.3.26.31H25.7L26,8.25l.26-.31V7H23.72Z" transform="translate(-2 -0.5)"/><path class="cls-3" d="M17.28,9.61s0,1.8,0,4v3.91h1.43V9.57H18C17.46,9.57,17.29,9.58,17.28,9.61Z" transform="translate(-2 -0.5)"/></svg>